PathFileType  4	(X/Y/Z) C:\Users\antoi\Documents\MyRepositories\mobilecap\ResultsAnalysis
DataRate	CameraRate	NumFrames	NumMarkers	Units	OrigDataRate	OrigDataStartFrame	OrigNumFrames
100.0	100.0	7	51	mm	100.0	187	249
Frame#	Time	r_knee			r_shank_antsup			r_ankle			r_calc			r_5meta			r_toe			L_knee			L_shank_antsup			L_ankle			L_calc			L_5meta			L_toe			r_sh2			r_sh3			r_sh4			L_sh2			L_sh3			r_thigh1			r_thigh2			r_thigh3			r_thigh4			r_thigh5			L_thigh1			L_thigh2			L_thigh3			L_thigh4			r.ASIS			r.PSIS			L.ASIS			L.PSIS			C7			R_Shoulder			L_Shoulder			R_Sternum			L_Sternum			R_humerus			R_elbow_med			R_elbow_lat			R_forearm			R_wrist_radius			R_wrist_ulna			L_humerus			L_elbow_med			L_elbow_lat			L_forearm			L_wrist_radius			L_wrist_ulna			R_HJC			L_HJC			R_HJC_reg			L_HJC_reg			
		X1	Y1	Z1	X2	Y2	Z2	X3	Y3	Z3	X4	Y4	Z4	X5	Y5	Z5	X6	Y6	Z6	X7	Y7	Z7	X8	Y8	Z8	X9	Y9	Z9	X10	Y10	Z10	X11	Y11	Z11	X12	Y12	Z12	X13	Y13	Z13	X14	Y14	Z14	X15	Y15	Z15	X16	Y16	Z16	X17	Y17	Z17	X18	Y18	Z18	X19	Y19	Z19	X20	Y20	Z20	X21	Y21	Z21	X22	Y22	Z22	X23	Y23	Z23	X24	Y24	Z24	X25	Y25	Z25	X26	Y26	Z26	X27	Y27	Z27	X28	Y28	Z28	X29	Y29	Z29	X30	Y30	Z30	X31	Y31	Z31	X32	Y32	Z32	X33	Y33	Z33	X34	Y34	Z34	X35	Y35	Z35	X36	Y36	Z36	X37	Y37	Z37	X38	Y38	Z38	X39	Y39	Z39	X40	Y40	Z40	X41	Y41	Z41	X42	Y42	Z42	X43	Y43	Z43	X44	Y44	Z44	X45	Y45	Z45	X46	Y46	Z46	X47	Y47	Z47	X48	Y48	Z48	X49	Y49	Z49	X50	Y50	Z50	X51	Y51	Z51	

187	1.86000000	-98.60739	447.10528	-406.10351	-107.59724	376.78259	-383.12844	-247.79731	112.80331	-445.48258	-322.86813	93.68164	-492.07704	-166.78875	45.00388	-413.31056	-113.64844	56.35204	-463.97085	-140.34685	454.63759	-809.94265	-124.10196	379.03744	-822.23191	-286.49018	121.69333	-778.51760	-365.64785	107.93585	-728.93704	-218.07140	48.31718	-807.67617	-160.74221	56.35849	-755.98332	-154.61232	273.78070	-390.28632	-170.10625	407.10137	-409.18369	-225.71501	306.22560	-420.20646	-203.09200	422.11261	-826.06511	-250.06852	309.31247	-821.05195	-196.04166	741.14754	-436.30220	-132.60202	650.13390	-411.17464	-167.46455	606.83973	-373.64597	-284.06771	694.69533	-381.57833	-222.85120	594.73443	-380.14389	-226.14549	731.89665	-775.78285	-154.89295	616.86038	-804.11814	-327.66422	674.36428	-771.63168	-247.46662	559.44919	-797.64458	-229.16496	837.45261	-454.47725	-410.86889	879.33167	-519.79496	-242.68935	844.92866	-712.76542	-421.18669	878.69890	-623.39359	-180.87446	1304.46979	-593.42052	-105.83986	1283.90959	-475.02084	-146.38997	1255.52118	-722.33733	-65.89590	1201.42742	-572.57543	-66.14088	1201.71772	-620.39293	-57.88097	1213.98113	-273.56389	-26.13334	1099.12851	-216.69463	-41.13694	1181.05902	-193.00730	4.08742	1225.87825	-291.08421	41.15839	1254.00512	-391.85956	81.15317	1239.48032	-379.28257	-40.76216	1291.92207	-784.87721	58.59288	1212.20470	-970.44026	42.70616	1285.58736	-978.37318	59.46809	1301.17263	-861.79160	66.52982	1278.13950	-745.98521	104.69893	1281.16684	-748.60425	-304.23216	771.34094	-481.30455	-311.92939	779.11137	-681.29660	-299.87680	768.53127	-483.66054	-316.80037	767.49330	-653.59206	
188	1.87000000	-108.33170	456.00064	-405.20210	-117.22549	385.11454	-382.35939	-246.73794	115.15718	-444.47539	-321.16773	97.70731	-491.22909	-165.99028	45.17633	-413.07076	-112.70866	56.19013	-463.53088	-151.88479	464.59653	-806.72319	-134.56825	390.02988	-819.83913	-284.65312	124.04602	-779.17625	-363.49346	111.78611	-729.45787	-217.05869	49.04742	-807.82878	-159.71910	56.23530	-755.99701	-160.52901	280.47357	-389.23258	-180.43807	412.81134	-409.72919	-232.12022	309.70002	-420.37121	-215.45848	429.80739	-823.05316	-257.28646	314.68619	-819.16672	-189.11171	755.88897	-435.81194	-131.45300	660.66360	-410.64197	-169.77711	619.58063	-373.87111	-280.79358	714.28519	-383.54331	-225.70693	610.81608	-381.29813	-220.98949	747.29603	-776.54995	-157.63168	627.43566	-803.60132	-325.95469	696.48237	-770.87124	-253.73465	576.12575	-795.34948	-220.79118	859.18524	-455.71593	-402.69704	898.95849	-519.89655	-235.18146	869.51926	-714.00139	-413.23782	898.70411	-622.85588	-189.13473	1333.91590	-591.15935	-111.83592	1315.15213	-473.60128	-153.00073	1288.07831	-721.51853	-70.64392	1234.30258	-572.09384	-70.60914	1235.31388	-617.71669	-71.45352	1247.04271	-267.88812	-50.52432	1132.03194	-205.35330	-59.20198	1215.76476	-186.03329	-7.56952	1251.21444	-285.08630	35.67552	1269.78233	-386.07734	73.97258	1253.37005	-370.89698	-45.86747	1323.07149	-783.63608	42.87009	1242.35615	-975.30031	32.35932	1316.71688	-980.26315	53.59322	1326.98840	-863.67730	61.36206	1298.00716	-748.80912	99.97746	1300.48445	-752.53926	-294.30702	792.12543	-482.92415	-303.00486	802.03105	-682.78202	-290.57121	790.31544	-485.04667	-307.97247	789.89379	-655.02806	
189	1.88000000	-120.91415	466.40415	-404.99964	-129.61238	394.66894	-382.11858	-245.49481	117.83367	-442.98887	-319.14211	102.31861	-489.85084	-164.98432	45.34368	-412.55084	-111.69751	56.00771	-462.91753	-166.43032	475.88649	-802.33307	-148.08207	402.56274	-815.79003	-282.61183	127.03320	-779.90643	-360.73534	117.22759	-730.24376	-215.85717	50.22859	-808.14871	-158.54171	56.22351	-756.27040	-168.40153	288.02624	-388.37371	-193.73522	419.18940	-410.77614	-240.29459	313.39141	-420.65047	-230.86796	438.18373	-818.74325	-266.31326	320.74442	-816.56823	-182.92616	771.60590	-435.76024	-131.80134	672.61085	-410.39352	-173.55520	634.00397	-374.39750	-278.18285	735.52535	-386.30608	-229.69868	628.69253	-383.13469	-215.78260	763.51942	-777.19718	-161.66816	638.71639	-802.38094	-324.17018	720.33092	-769.88223	-261.40833	594.74493	-792.87897	-211.60475	882.32332	-457.20322	-393.83072	919.74682	-520.20392	-227.28801	895.55206	-715.19569	-404.49391	919.84926	-622.46813	-196.89666	1364.48245	-588.11400	-118.14719	1346.00351	-471.60058	-159.94063	1322.41366	-720.28151	-75.78490	1267.64792	-571.25119	-76.18737	1268.68572	-615.80025	-84.99195	1279.07180	-262.53361	-76.27912	1164.19478	-196.01584	-77.07579	1248.47360	-179.89680	-18.65172	1273.81079	-278.33113	31.41211	1282.24889	-378.63650	67.12118	1263.55432	-360.29552	-52.21815	1352.99986	-782.90364	25.22842	1269.78896	-980.31619	20.98535	1344.86417	-982.60756	47.06582	1349.72606	-867.06676	55.83908	1315.21066	-753.56855	94.43607	1316.91835	-758.32528	-283.52513	814.26854	-484.72639	-293.38500	826.30302	-684.41356	-280.58249	813.49717	-486.68960	-298.29761	813.67051	-656.58319	
190	1.89000000	-136.97597	478.15639	-406.04803	-145.20502	405.85747	-382.32623	-244.11987	121.47065	-441.02172	-316.41485	108.62206	-487.83330	-163.72467	45.88495	-411.64651	-110.45093	56.05248	-462.03044	-183.96574	489.09478	-796.26200	-164.77933	417.55782	-810.20543	-279.97821	131.64312	-780.54072	-356.14067	125.66880	-731.17891	-214.13923	52.11320	-808.73240	-156.77444	56.26603	-756.94047	-178.07323	296.98378	-387.96164	-210.16478	426.44475	-412.57099	-250.47160	317.85257	-421.52230	-249.65439	447.78442	-812.63805	-277.21814	328.13882	-813.00421	-177.25481	788.37206	-436.61150	-133.65391	686.12124	-410.79993	-178.58744	650.15444	-375.63595	-275.85249	758.51702	-389.52921	-234.68820	648.50086	-385.66116	-210.68637	780.78931	-777.49220	-167.27372	651.23501	-799.96563	-322.21715	745.97798	-769.01347	-270.33123	615.66461	-789.85361	-201.79637	907.32085	-458.95272	-384.35638	941.32629	-520.46976	-218.79322	922.78858	-716.75183	-395.14322	942.02866	-622.52682	-204.23899	1395.44230	-585.07162	-124.52682	1376.71957	-468.97371	-165.76040	1356.82890	-718.68364	-81.25398	1301.09429	-569.69759	-82.40883	1301.70444	-615.15019	-98.39872	1309.85032	-257.63607	-102.96635	1195.35911	-188.94086	-94.30007	1278.85574	-174.72395	-28.76887	1293.15370	-270.80694	28.52169	1290.80781	-369.02616	60.38025	1269.14185	-347.30274	-59.72948	1381.83619	-782.92063	6.06570	1294.32213	-984.87141	8.53184	1369.48739	-985.32045	39.59667	1369.46707	-871.64135	49.95039	1330.34806	-759.92425	88.14720	1331.02947	-765.66719	-271.78139	837.92448	-486.67964	-282.95220	851.72977	-686.18183	-269.50060	837.51012	-488.89774	-287.45719	838.68215	-658.76982	
191	1.90000000	-156.37135	491.65935	-408.45794	-164.00780	419.07074	-383.34787	-242.01880	126.59180	-438.07974	-311.92334	117.99287	-484.65266	-162.00301	46.67614	-410.19237	-108.63542	56.19078	-460.59024	-204.50431	504.66673	-787.69155	-184.65543	435.87431	-802.70795	-274.51178	139.45779	-781.79076	-347.48356	138.78659	-732.32467	-211.22196	54.36343	-809.32874	-153.91655	55.61819	-757.73150	-189.36278	308.77741	-387.58250	-229.40539	434.72081	-415.53451	-262.32643	323.41251	-422.90835	-271.72570	459.11930	-804.06181	-289.67849	337.88083	-808.41101	-171.69881	805.98745	-438.46261	-136.58745	700.81471	-412.35049	-184.68773	667.90791	-378.06771	-273.26051	783.05846	-393.00116	-240.45775	670.21976	-388.96921	-206.04229	799.23784	-776.87967	-174.34702	665.73787	-795.79407	-320.03804	773.37794	-768.35606	-279.86762	639.01231	-786.04285	-191.61969	933.97570	-461.25815	-374.33198	963.42130	-520.53623	-209.41625	950.54268	-718.40992	-385.28824	965.18625	-623.07534	-211.59204	1425.86060	-582.34850	-130.97728	1406.94240	-465.77812	-170.84979	1390.64452	-717.08661	-87.13007	1334.20508	-567.44504	-88.61073	1334.53857	-613.82153	-111.44217	1338.87875	-253.24308	-129.76155	1225.49899	-184.17090	-110.59620	1306.59345	-170.58242	-37.81502	1308.80014	-262.49119	26.17495	1295.21342	-356.65641	52.86065	1269.89151	-332.20305	-68.01396	1409.06186	-784.20305	-14.30340	1315.74627	-988.63786	-5.09409	1390.25420	-988.37440	31.06415	1386.29971	-876.79061	43.45493	1343.95416	-767.01459	81.15024	1343.18582	-774.09638	-259.29617	862.86504	-488.63781	-271.77881	877.86334	-687.97847	-257.23477	861.88787	-492.07928	-275.34537	864.79632	-661.56401	
192	1.91000000	-178.87118	507.18150	-413.09366	-185.71307	434.58479	-386.44104	-236.98004	134.33159	-432.87697	-303.89930	132.09253	-479.28993	-159.33863	47.33230	-408.33189	-105.80670	56.00555	-458.33558	-228.48419	522.93158	-776.26374	-206.89599	458.01565	-792.46318	-265.04918	152.64290	-784.27205	-334.51541	158.01785	-733.18891	-207.33719	58.98562	-809.84740	-149.88684	56.27474	-759.06086	-202.30860	324.04710	-387.16577	-251.08186	444.08747	-420.65492	-275.01118	330.27872	-425.08917	-295.79812	472.61064	-792.02128	-302.25730	350.91491	-801.76374	-166.21256	824.12006	-440.75477	-140.28943	716.52687	-415.32666	-191.34966	687.03462	-382.00170	-270.19321	808.76119	-396.86708	-246.58306	693.70310	-393.00007	-201.89474	818.27569	-775.68313	-182.34551	681.93689	-789.95321	-317.52344	801.84308	-767.68065	-289.54632	664.23697	-781.66025	-181.36682	961.10609	-464.05816	-363.81299	985.99822	-520.94720	-199.31543	978.24424	-719.58904	-374.95246	989.17054	-623.99538	-218.77610	1455.11211	-579.87931	-138.09244	1435.43723	-462.63367	-175.24132	1423.97806	-715.61160	-93.52602	1366.42401	-564.76263	-94.87845	1366.48718	-612.06557	-123.92422	1365.65454	-249.45440	-155.76387	1254.41104	-181.36051	-125.88855	1331.43388	-167.47689	-46.05466	1320.70214	-252.91897	23.09808	1295.78219	-341.53531	43.55177	1266.89934	-315.22164	-76.95471	1433.91108	-786.79525	-35.60171	1333.87328	-991.34767	-19.94602	1407.28089	-991.50876	21.43115	1400.38154	-882.23368	36.37816	1356.11968	-774.14364	73.47343	1353.44459	-782.99925	-246.73776	888.33756	-490.62500	-260.17818	904.29357	-689.83010	-244.46927	886.50653	-495.93654	-262.66536	891.68709	-664.31913	
193	1.92000000	-204.49635	524.98106	-420.94893	-209.19557	453.13532	-392.64746	-227.80403	147.28114	-425.09423	-292.15837	152.43280	-472.06803	-155.76675	50.37123	-406.04112	-101.79921	57.71621	-454.62709	-253.92418	544.61277	-763.40814	-228.86490	483.93506	-779.93576	-256.18569	172.48014	-786.20625	-321.76796	181.43455	-731.12425	-204.40445	71.85385	-811.51326	-145.11283	65.85842	-763.67664	-215.99049	342.63814	-388.13291	-274.14993	455.36053	-428.52246	-287.28357	339.70182	-428.91594	-318.77239	489.33046	-776.93550	-313.07138	368.26018	-792.06798	-160.67702	842.29432	-442.86171	-144.26512	732.87979	-419.45355	-197.91078	706.87828	-387.34718	-266.50674	834.70000	-400.84602	-252.50556	718.06912	-397.77651	-198.22872	836.49814	-775.05527	-190.91360	698.54558	-783.16825	-314.79646	829.95052	-767.18710	-299.30649	690.10055	-776.30091	-171.78551	987.21684	-467.02209	-353.31489	1008.99628	-522.08308	-189.32610	1005.64409	-720.33074	-364.35983	1013.61213	-625.26392	-225.81309	1482.39395	-577.60596	-146.13255	1461.45518	-460.07762	-178.96114	1455.94476	-714.13606	-100.37624	1396.99818	-561.97395	-101.38208	1396.56907	-610.58720	-135.72836	1389.72526	-246.83837	-180.04876	1281.77817	-180.04237	-140.16199	1353.17060	-165.42433	-54.38456	1329.22006	-241.93809	17.99709	1293.28001	-324.36573	31.72425	1261.84377	-296.77437	-86.95757	1456.13349	-789.74360	-57.35994	1348.94878	-992.68660	-35.85890	1420.96196	-994.40041	10.69449	1411.86268	-887.88325	29.01783	1366.51793	-780.90228	65.13021	1361.65398	-791.87066	-235.13331	913.34548	-492.91835	-248.93851	930.73477	-691.97277	-232.86232	911.23350	-499.96552	-250.72556	918.70881	-666.87292	
